<svg xmlns="http://www.w3.org/2000/svg" width="12.118" height="11.923" viewBox="0 0 12.118 11.923">
  <path id="checkmark2" d="M11.771,7.6,11.3,7.14a.222.222,0,0,0-.311,0L8.19,9.9,6.858,8.576a.223.223,0,0,0-.312,0l-.467.46a.214.214,0,0,0,0,.306l1.954,1.937a.223.223,0,0,0,.311,0l3.427-3.372A.213.213,0,0,0,11.771,7.6ZM9.059,3A6.011,6.011,0,0,0,3,8.961a6.011,6.011,0,0,0,6.059,5.961,6.011,6.011,0,0,0,6.059-5.961A6.011,6.011,0,0,0,9.059,3Zm0,10.547a4.586,4.586,0,1,1,4.661-4.586A4.624,4.624,0,0,1,9.059,13.547Z" transform="translate(-3 -3)" fill="#2AAD40"/>
</svg>